<svg xmlns="http://www.w3.org/2000/svg" xmlns:svg="http://www.w3.org/2000/svg" xmlns:xlink="http://www.w3.org/1999/xlink" id="svg1" width="640mm" height="400mm" version="1.1" viewBox="0 0 2418.898 1511.811" xml:space="preserve"><defs id="defs1"><linearGradient id="swatch98"><stop style="stop-color:#0f0f0f;stop-opacity:1" id="stop98" offset="0"/></linearGradient><filter id="selectable_hidder_filter" width="1" height="1" x="0" y="0" style="color-interpolation-filters:sRGB"><feComposite id="boolops_hidder_primitive" in="BackgroundImage" in2="SourceGraphic" operator="arithmetic" result="composite1"/></filter><rect id="rect64" width="2296" height="1214" x="62" y="270"/><rect id="rect63" width="2292" height="1208" x="66" y="276"/><rect id="rect62" width="316.784" height="106.066" x="1842.72" y="1565.534"/><rect id="rect61" width="1781.909" height="1291.177" x="69.296" y="275.772"/><rect id="rect60" width="705.693" height="634.982" x="162.635" y="388.909"/><rect id="rect59" width="2132" height="1052" x="180" y="388"/><linearGradient id="linearGradient43"><stop style="stop-color:#0f0f0f;stop-opacity:1" id="stop43" offset="0"/><stop style="stop-color:#1e1e1e;stop-opacity:1" id="stop44" offset="1"/></linearGradient><linearGradient id="swatch2"><stop style="stop-color:#0f0f0f;stop-opacity:1" id="stop2" offset="0"/><stop style="stop-color:#242424;stop-opacity:1" id="stop36" offset="1"/></linearGradient><filter style="color-interpolation-filters:sRGB" id="filter30" width="1.075" height="1.29" x="-.037" y="-.145"><feFlood id="feFlood29" flood-color="#000" flood-opacity=".565" in="SourceGraphic" result="flood"/><feGaussianBlur id="feGaussianBlur29" in="SourceGraphic" result="blur" stdDeviation="2"/><feOffset id="feOffset29" dx="0" dy="0" in="blur" result="offset"/><feComposite id="feComposite29" in="flood" in2="offset" operator="in" result="comp1"/><feComposite id="feComposite30" in="SourceGraphic" in2="comp1" operator="over" result="comp2"/></filter><linearGradient id="linearGradient42" x1="1206" x2="1200" y1="270" y2="1472" gradientUnits="userSpaceOnUse" xlink:href="#linearGradient43"/><filter style="color-interpolation-filters:sRGB" id="filter59" width="1.026" height="1.053" x="-.013" y="-.026"><feFlood id="feFlood58" flood-color="#000" flood-opacity=".667" in="SourceGraphic" result="flood"/><feGaussianBlur id="feGaussianBlur58" in="SourceGraphic" result="blur" stdDeviation="12.158"/><feOffset id="feOffset58" dx="0" dy="0" in="blur" result="offset"/><feComposite id="feComposite58" in="flood" in2="offset" operator="in" result="comp1"/><feComposite id="feComposite59" in="SourceGraphic" in2="comp1" operator="over" result="comp2"/></filter><filter style="color-interpolation-filters:sRGB" id="filter75" width="1.033" height="1.089" x="-.016" y="-.045"><feFlood id="feFlood74" flood-color="#000" flood-opacity=".682" in="SourceGraphic" result="flood"/><feGaussianBlur id="feGaussianBlur74" in="SourceGraphic" result="blur" stdDeviation="15.198"/><feOffset id="feOffset74" dx="0" dy="0" in="blur" result="offset"/><feComposite id="feComposite74" in="flood" in2="offset" operator="in" result="comp1"/><feComposite id="feComposite75" in="SourceGraphic" in2="comp1" operator="over" result="comp2"/></filter><filter style="color-interpolation-filters:sRGB" id="filter59-3" width="1.026" height="1.049" x="-.013" y="-.024"><feFlood id="feFlood58-8" flood-color="#000" flood-opacity=".667" in="SourceGraphic" result="flood"/><feGaussianBlur id="feGaussianBlur58-8" in="SourceGraphic" result="blur" stdDeviation="12.158"/><feOffset id="feOffset58-1" dx="0" dy="0" in="blur" result="offset"/><feComposite id="feComposite58-9" in="flood" in2="offset" operator="in" result="comp1"/><feComposite id="feComposite59-5" in="SourceGraphic" in2="comp1" operator="over" result="comp2"/></filter><filter style="color-interpolation-filters:sRGB" id="filter97" width="1.024" height="1.313" x="-.012" y="-.157"><feFlood id="feFlood96" flood-color="#000" flood-opacity=".682" in="SourceGraphic" result="flood"/><feGaussianBlur id="feGaussianBlur96" in="SourceGraphic" result="blur" stdDeviation="7.295"/><feOffset id="feOffset96" dx="0" dy="0" in="blur" result="offset"/><feComposite id="feComposite96" in="flood" in2="offset" operator="in" result="comp1"/><feComposite id="feComposite97" in="SourceGraphic" in2="comp1" operator="over" result="comp2"/></filter><linearGradient id="linearGradient98" x1="30.754" x2="2318.035" y1="703.425" y2="703.425" gradientUnits="userSpaceOnUse" xlink:href="#swatch98"/></defs><g id="layer1"><path style="display:inline;fill:#1e1e1e;fill-opacity:1;fill-rule:nonzero;stroke-width:.648959;stroke-dasharray:none;filter:url(#filter97)" id="rect94" width="1445.989" height="111.723" x="486.454" y="1370.277" d="M 496.50845,1370.2775 H 1922.3891 a 10.054167,10.054167 45 0 1 10.0542,10.0541 v 91.6146 a 10.054167,10.054167 135 0 1 -10.0542,10.0542 H 496.50845 a 10.054167,10.054167 45 0 1 -10.05417,-10.0542 v -91.6146 a 10.054167,10.054167 135 0 1 10.05417,-10.0541 z" transform="matrix(1.167454,0,0,1.1635567,-202.52697,-253.25459)"/><path id="rect1" style="display:inline;fill:url(#linearGradient42);fill-opacity:1;fill-rule:nonzero;stroke-width:1.00157;stroke-dasharray:none;filter:url(#filter59)" d="M 132.49898,274.99804 A 79.375,79.375 0 0 0 53.123977,354.37147 V 1383.1198 L 2340.5986,1107.9533 V 354.37147 a 79.375,79.375 0 0 0 -79.375,-79.37343 z" transform="matrix(1,0,0,0.88909242,12.58696,27.263041)"/><path style="font-weight:700;font-size:45.1556px;line-height:0;font-family:'Product Sans';-inkscape-font-specification:'Product Sans Bold';fill:#d8dbe1;stroke-width:.264583;filter:url(#filter30)" id="text2" d="M 4.8000003,4.799998 H 10.896007 V 37.131409 H 4.8000003 Z M 16.675894,15.005164 h 5.554139 v 2.889958 h 0.361244 q 1.038579,-1.625601 2.799648,-2.619024 1.806224,-0.993424 3.973693,-0.993424 2.528713,0 4.244626,1.174046 1.715913,1.174046 2.438403,2.889958 1.038579,-1.670757 2.935114,-2.844802 1.896535,-1.219202 4.605871,-1.219202 2.032002,0 3.522137,0.677334 1.490135,0.632179 2.438403,1.806224 0.993423,1.174046 1.490134,2.844803 0.496712,1.625602 0.496712,3.567293 V 37.131409 H 45.620634 V 24.262062 q 0,-4.51556 -3.702759,-4.51556 -1.174046,0 -2.077158,0.541867 -0.903112,0.496712 -1.53529,1.399824 -0.587023,0.857956 -0.948268,2.077158 -0.316089,1.219201 -0.316089,2.619025 V 37.131409 H 31.125686 V 24.262062 q 0,-4.51556 -3.883382,-4.51556 -1.12889,0 -1.986846,0.541867 -0.857956,0.496712 -1.444979,1.399824 -0.587023,0.857956 -0.903112,2.077158 -0.31609,1.219201 -0.31609,2.619025 V 37.131409 H 16.675894 Z M 57.135274,4.799998 H 63.23128 V 17.7145 H 76.823116 V 4.799998 h 6.096007 V 37.131409 H 76.823116 V 23.494417 H 63.23128 v 13.636992 h -6.096006 z m 52.515976,27.00305 q -1.53529,2.709336 -4.15432,4.380093 -2.57387,1.670757 -6.321784,1.670757 -2.528713,0 -4.696182,-0.857956 -2.122313,-0.903112 -3.702759,-2.483558 -1.580446,-1.580446 -2.483558,-3.70276 -0.857957,-2.167468 -0.857957,-4.741338 0,-2.393247 0.857957,-4.51556 0.857956,-2.167469 2.393246,-3.747915 1.535291,-1.625601 3.612449,-2.573869 2.122313,-0.948268 4.651026,-0.948268 2.664182,0 4.741342,0.903112 2.07715,0.857957 3.47698,2.438403 1.39982,1.53529 2.12231,3.657604 0.72249,2.122313 0.72249,4.605871 0,0.316089 0,0.541867 -0.0452,0.270934 -0.0452,0.496712 -0.0452,0.225778 -0.0452,0.496711 H 93.259763 q 0.180622,1.354668 0.722489,2.348092 0.587023,0.948267 1.399824,1.625601 0.857956,0.632179 1.85138,0.948268 0.993423,0.270934 2.032002,0.270934 2.032002,0 3.341512,-0.903112 1.35467,-0.948268 2.12232,-2.348092 z m -5.37352,-8.579565 q -0.0452,-0.587022 -0.4064,-1.309512 -0.31609,-0.72249 -0.99342,-1.354668 -0.63218,-0.632178 -1.62561,-1.038579 -0.94826,-0.4064 -2.302932,-0.4064 -1.896535,0 -3.341514,1.083734 -1.444979,1.083735 -2.032002,3.025425 z m 14.58524,2.664181 -7.58614,-10.8825 h 6.99912 l 4.01884,6.141162 h 0.31609 l 3.79307,-6.141162 h 7.2249 l -7.76676,10.8825 7.76676,11.243745 h -6.95396 l -4.15432,-6.321785 h -0.31609 l -4.01885,6.321785 h -6.99911 z" aria-label="ImHex" transform="matrix(9.4457335,0,0,9.4457335,593.66778,30.219531)"/></g><style id="style1">#text2{fill:#d8dbe1}@media (prefers-color-scheme:light){#text2{fill:#121419}}</style></svg>